<svg width="725" height="85" viewBox="0 0 725 85" fill="none" xmlns="http://www.w3.org/2000/svg">
<path d="M5.31018 63.09L5.49018 62.19L7.65018 61.38C10.4102 60.24 12.0902 58.2 12.6902 55.26L17.1002 31.59C17.5802 29.07 18.0902 26.28 18.6302 23.22C19.2302 20.1 19.8002 17.01 20.3402 13.95C20.8802 10.83 21.3602 8.00996 21.7802 5.48996H17.9102C15.7502 5.48996 13.8902 5.87996 12.3302 6.65996C10.7702 7.43996 9.36018 8.69996 8.10018 10.44L0.900176 20.25H0.000176355L3.33018 3.68996H53.1902L50.3102 20.25H49.4102L46.0802 11.16C44.7602 7.37996 42.0302 5.48996 37.8902 5.48996H34.2002L28.6202 35.1C28.0202 38.16 27.3902 41.46 26.7302 45C26.1302 48.48 25.5302 51.87 24.9302 55.17C24.3902 58.29 25.5602 60.45 28.4402 61.65L29.6102 62.19L29.4302 63.09H5.31018ZM58.5368 64.44C54.0368 64.44 50.3768 62.97 47.5568 60.03C44.7368 57.09 43.3268 52.92 43.3268 47.52C43.3268 43.68 43.9868 40.02 45.3068 36.54C46.6268 33.06 48.4568 29.97 50.7968 27.27C53.1968 24.51 55.9568 22.35 59.0768 20.79C62.1968 19.23 65.5868 18.45 69.2468 18.45C73.0268 18.45 75.9068 19.32 77.8868 21.06C79.9268 22.74 80.9468 24.99 80.9468 27.81C80.9468 30.15 79.8368 32.46 77.6168 34.74C75.4568 37.02 72.3968 39.09 68.4368 40.95C64.4768 42.75 59.8268 44.13 54.4868 45.09C54.5468 49.23 55.4468 52.26 57.1868 54.18C58.9268 56.1 61.3268 57.06 64.3868 57.06C66.9668 57.06 69.3368 56.37 71.4968 54.99C73.6568 53.55 75.4868 51.87 76.9868 49.95L77.8868 50.58C76.6868 52.92 75.1268 55.14 73.2068 57.24C71.3468 59.34 69.1868 61.08 66.7268 62.46C64.2668 63.78 61.5368 64.44 58.5368 64.44ZM68.6168 20.88C67.2368 20.88 65.7368 21.48 64.1168 22.68C62.5568 23.88 61.0568 25.53 59.6168 27.63C58.2368 29.67 57.0668 32.04 56.1068 34.74C55.2068 37.38 54.6668 40.2 54.4868 43.2C61.0868 41.4 65.7668 39.03 68.5268 36.09C71.3468 33.15 72.7568 29.82 72.7568 26.1C72.7568 24.3 72.3668 22.98 71.5868 22.14C70.8068 21.3 69.8168 20.88 68.6168 20.88ZM90.2049 64.44C86.4249 64.44 83.3649 63.69 81.0249 62.19C78.6849 60.69 77.5149 58.56 77.5149 55.8C77.5149 54.36 78.0249 53.1 79.0449 52.02C80.0649 50.94 81.3849 50.4 83.0049 50.4C86.0049 50.4 87.8649 52.23 88.5849 55.89L89.1249 58.41C89.4249 59.67 89.7849 60.69 90.2049 61.47C90.6849 62.25 91.5849 62.64 92.9049 62.64C94.4049 62.64 95.7249 62.01 96.8649 60.75C98.0049 59.49 98.5749 57.75 98.5749 55.53C98.5749 53.85 98.0349 52.23 96.9549 50.67C95.9349 49.11 94.1949 47.4 91.7349 45.54C89.2749 43.62 87.2949 41.64 85.7949 39.6C84.2949 37.5 83.5449 35.01 83.5449 32.13C83.5449 29.61 84.1749 27.33 85.4349 25.29C86.7549 23.19 88.6449 21.54 91.1049 20.34C93.5649 19.08 96.4749 18.45 99.8349 18.45C103.735 18.45 106.795 19.23 109.015 20.79C111.295 22.35 112.435 24.36 112.435 26.82C112.435 28.14 112.045 29.25 111.265 30.15C110.485 30.99 109.315 31.41 107.755 31.41C104.875 31.41 102.925 29.67 101.905 26.19L101.005 23.67C100.705 22.47 100.345 21.63 99.9249 21.15C99.5049 20.67 98.8449 20.43 97.9449 20.43C96.9849 20.43 95.9949 20.97 94.9749 22.05C93.9549 23.07 93.4449 24.72 93.4449 27C93.4449 29.16 94.0749 31.14 95.3349 32.94C96.6549 34.68 98.6049 36.51 101.185 38.43C103.825 40.41 105.745 42.33 106.945 44.19C108.205 46.05 108.835 48.3 108.835 50.94C108.835 53.4 108.115 55.65 106.675 57.69C105.235 59.73 103.135 61.38 100.375 62.64C97.6149 63.84 94.2249 64.44 90.2049 64.44ZM120.425 64.44C118.565 64.44 117.005 63.96 115.745 63C114.545 61.98 113.945 60.51 113.945 58.59C113.945 57.39 114.065 56.1 114.305 54.72C114.545 53.28 114.815 51.75 115.115 50.13L121.325 21.69H113.855L114.125 20.61L117.365 20.25C119.045 20.07 120.515 19.65 121.775 18.99C123.035 18.33 124.235 17.4 125.375 16.2L134.015 7.46996H135.365L132.845 19.8H142.655L142.205 21.69H132.395L126.185 51.66C125.945 52.8 125.765 53.79 125.645 54.63C125.525 55.41 125.465 56.07 125.465 56.61C125.465 57.21 125.645 57.69 126.005 58.05C126.365 58.41 126.755 58.59 127.175 58.59C128.015 58.59 128.915 58.26 129.875 57.6C130.835 56.88 132.035 55.83 133.475 54.45L134.555 55.35C133.055 57.57 131.105 59.64 128.705 61.56C126.305 63.48 123.545 64.44 120.425 64.44ZM161.79 63.09L161.97 62.19L164.22 61.38C166.56 60.6 167.94 59.01 168.36 56.61L171.69 39.06L161.79 9.26996C161.19 7.22996 159.87 5.81996 157.83 5.03996L156.84 4.58996L157.02 3.68996H179.61L179.43 4.58996L177.45 5.21997C175.53 5.81996 174.84 7.10996 175.38 9.08996L183.03 35.01L198.96 8.90996C200.04 7.04996 199.56 5.78996 197.52 5.12996L195.72 4.58996L195.9 3.68996H208.14L207.96 4.58996L206.25 5.21997C205.11 5.57996 204.15 6.05996 203.37 6.65996C202.59 7.25996 201.87 8.09996 201.21 9.17996L184.2 37.26C183.72 40.02 183.15 43.2 182.49 46.8C181.83 50.4 181.23 53.76 180.69 56.88C180.33 59.1 181.2 60.63 183.3 61.47L185.37 62.19L185.19 63.09H161.79ZM214.088 64.44C210.968 64.44 208.118 63.84 205.538 62.64C202.958 61.38 200.918 59.52 199.418 57.06C197.918 54.54 197.168 51.36 197.168 47.52C197.168 43.68 197.798 40.02 199.058 36.54C200.378 33.06 202.208 29.97 204.548 27.27C206.888 24.51 209.618 22.35 212.738 20.79C215.858 19.23 219.248 18.45 222.908 18.45C226.088 18.45 228.908 19.08 231.368 20.34C233.888 21.54 235.868 23.37 237.308 25.83C238.808 28.29 239.558 31.44 239.558 35.28C239.558 39.06 238.898 42.72 237.578 46.26C236.318 49.74 234.518 52.86 232.178 55.62C229.898 58.32 227.198 60.48 224.078 62.1C221.018 63.66 217.688 64.44 214.088 64.44ZM215.168 62.64C217.028 62.64 218.708 61.8 220.208 60.12C221.768 58.38 223.118 56.1 224.258 53.28C225.398 50.4 226.268 47.25 226.868 43.83C227.468 40.35 227.768 36.9 227.768 33.48C227.768 28.5 227.258 25.05 226.238 23.13C225.218 21.21 223.898 20.25 222.278 20.25C220.358 20.25 218.588 21.09 216.968 22.77C215.348 24.45 213.938 26.7 212.738 29.52C211.538 32.34 210.608 35.46 209.948 38.88C209.288 42.3 208.958 45.72 208.958 49.14C208.958 54.24 209.558 57.78 210.758 59.76C211.958 61.68 213.428 62.64 215.168 62.64ZM248.378 64.44C246.338 64.44 244.568 63.84 243.068 62.64C241.628 61.38 240.908 59.52 240.908 57.06C240.908 55.68 241.058 54.18 241.358 52.56C241.658 50.94 241.988 49.35 242.348 47.79L246.308 30.06C246.848 27.72 246.038 26.01 243.878 24.93L242.168 24.21L242.258 23.22L259.268 18.36L260.078 19.08L253.778 46.62C253.418 48.12 253.118 49.47 252.878 50.67C252.638 51.87 252.518 52.98 252.518 54C252.518 55.32 252.818 56.28 253.418 56.88C254.018 57.42 254.798 57.69 255.758 57.69C257.138 57.69 258.668 57.21 260.348 56.25C262.028 55.23 263.978 53.67 266.198 51.57C266.258 51.21 266.348 50.82 266.468 50.4L269.528 35.91C270.008 33.57 270.458 31.23 270.878 28.89C271.358 26.49 271.808 24.09 272.228 21.69L283.568 18.36L284.558 19.17L277.448 51.84C276.968 53.94 276.728 55.59 276.728 56.79C276.728 58.05 277.268 58.68 278.348 58.68C279.188 58.68 280.088 58.35 281.048 57.69C282.008 56.97 283.178 55.92 284.558 54.54L285.638 55.62C284.138 57.84 282.218 59.88 279.878 61.74C277.598 63.54 274.988 64.44 272.048 64.44C270.188 64.44 268.628 63.81 267.368 62.55C266.168 61.23 265.568 59.37 265.568 56.97C265.568 56.07 265.628 55.2 265.748 54.36C262.628 57.48 259.598 59.94 256.658 61.74C253.778 63.54 251.018 64.44 248.378 64.44ZM286.019 63.72L285.119 63.09L291.959 30.15C292.259 28.59 292.169 27.45 291.689 26.73C291.209 25.95 290.399 25.32 289.259 24.84L287.909 24.21L288.089 23.31L303.749 18.36L304.649 19.17L302.219 34.02C303.479 31.14 304.949 28.53 306.629 26.19C308.309 23.85 310.079 21.99 311.939 20.61C313.799 19.17 315.659 18.45 317.519 18.45C319.379 18.45 320.879 18.96 322.019 19.98C323.159 20.94 323.729 22.23 323.729 23.85C323.729 25.53 323.219 26.91 322.199 27.99C321.239 29.07 319.919 29.61 318.239 29.61C316.919 29.61 315.659 29.28 314.459 28.62C313.259 27.9 312.089 26.88 310.949 25.56C308.849 27.12 307.049 29.16 305.549 31.68C304.049 34.14 302.669 36.84 301.409 39.78L300.509 43.92C299.849 47.1 299.219 50.28 298.619 53.46C298.019 56.64 297.419 59.85 296.819 63.09L286.019 63.72ZM366.803 63.09L366.983 62.19L368.063 61.74C370.103 60.78 370.583 59.4 369.503 57.6L354.563 32.13L379.763 9.35997C380.723 8.51997 381.143 7.67997 381.023 6.83997C380.963 5.99996 380.393 5.36996 379.313 4.94996L378.503 4.58996L378.593 3.68996H392.723L392.543 4.58996L391.553 4.94996C389.513 5.66996 387.803 6.41996 386.423 7.19996C385.103 7.97996 383.663 9.05996 382.103 10.44L364.013 26.82L382.643 56.97C384.023 59.25 385.883 60.9 388.223 61.92L389.033 62.19L388.853 63.09H366.803ZM332.063 63.09L332.243 62.19L333.773 61.56C335.873 60.78 337.133 59.25 337.553 56.97L342.323 31.59C342.983 28.35 343.643 24.75 344.303 20.79C344.963 16.77 345.593 13.02 346.193 9.53996C346.553 7.43996 345.743 5.93996 343.763 5.03996L342.683 4.58996L342.863 3.68996H364.643L364.463 4.58996L362.483 5.21997C360.323 5.99996 359.033 7.49996 358.613 9.71996L353.303 38.7C352.823 41.16 352.253 44.13 351.593 47.61C350.993 51.03 350.423 54.24 349.883 57.24C349.523 59.4 350.363 60.87 352.403 61.65L353.753 62.19L353.573 63.09H332.063ZM388.89 63.72L388.08 63.09L395.01 29.97C395.55 27.63 394.71 25.95 392.49 24.93L390.96 24.21L391.05 23.31L407.79 18.36L408.6 19.08L406.53 29.97C409.65 26.43 412.83 23.64 416.07 21.6C419.31 19.5 422.37 18.45 425.25 18.45C427.17 18.45 428.76 19.05 430.02 20.25C431.28 21.39 431.91 23.19 431.91 25.65C431.91 26.91 431.79 28.23 431.55 29.61C431.31 30.93 431.01 32.31 430.65 33.75L425.88 52.92C425.64 53.88 425.46 54.69 425.34 55.35C425.22 55.95 425.16 56.49 425.16 56.97C425.16 58.23 425.67 58.86 426.69 58.86C428.37 58.86 430.5 57.51 433.08 54.81L433.98 55.71C432.48 57.93 430.5 59.94 428.04 61.74C425.58 63.54 422.85 64.44 419.85 64.44C417.87 64.44 416.34 63.99 415.26 63.09C414.18 62.13 413.64 60.81 413.64 59.13C413.64 57.87 413.79 56.58 414.09 55.26C414.39 53.88 414.72 52.47 415.08 51.03L418.59 36.99C419.07 35.07 419.46 33.36 419.76 31.86C420.06 30.36 420.21 28.98 420.21 27.72C420.21 26.64 419.97 25.89 419.49 25.47C419.01 24.99 418.35 24.75 417.51 24.75C416.07 24.75 414.36 25.38 412.38 26.64C410.46 27.9 408.33 29.88 405.99 32.58L403.47 43.92C402.81 47.1 402.18 50.28 401.58 53.46C400.98 56.64 400.38 59.85 399.78 63.09L388.89 63.72ZM451.826 64.44C448.706 64.44 445.856 63.84 443.276 62.64C440.696 61.38 438.656 59.52 437.156 57.06C435.656 54.54 434.906 51.36 434.906 47.52C434.906 43.68 435.536 40.02 436.796 36.54C438.116 33.06 439.946 29.97 442.286 27.27C444.626 24.51 447.356 22.35 450.476 20.79C453.596 19.23 456.986 18.45 460.646 18.45C463.826 18.45 466.646 19.08 469.106 20.34C471.626 21.54 473.606 23.37 475.046 25.83C476.546 28.29 477.296 31.44 477.296 35.28C477.296 39.06 476.636 42.72 475.316 46.26C474.056 49.74 472.256 52.86 469.916 55.62C467.636 58.32 464.936 60.48 461.816 62.1C458.756 63.66 455.426 64.44 451.826 64.44ZM452.906 62.64C454.766 62.64 456.446 61.8 457.946 60.12C459.506 58.38 460.856 56.1 461.996 53.28C463.136 50.4 464.006 47.25 464.606 43.83C465.206 40.35 465.506 36.9 465.506 33.48C465.506 28.5 464.996 25.05 463.976 23.13C462.956 21.21 461.636 20.25 460.016 20.25C458.096 20.25 456.326 21.09 454.706 22.77C453.086 24.45 451.676 26.7 450.476 29.52C449.276 32.34 448.346 35.46 447.686 38.88C447.026 42.3 446.696 45.72 446.696 49.14C446.696 54.24 447.296 57.78 448.496 59.76C449.696 61.68 451.166 62.64 452.906 62.64ZM489.908 63.9L489.098 63.18C488.498 56.7 487.868 50.67 487.208 45.09C486.608 39.51 485.978 34.11 485.318 28.89C485.198 27.63 484.928 26.79 484.508 26.37C484.148 25.95 483.668 25.74 483.068 25.74C482.468 25.74 481.778 26.01 480.998 26.55C480.218 27.03 479.408 27.69 478.568 28.53L477.488 27.45C479.588 24.45 481.628 22.2 483.608 20.7C485.648 19.2 487.688 18.45 489.728 18.45C492.008 18.45 493.688 19.08 494.768 20.34C495.908 21.6 496.568 23.61 496.748 26.37C497.108 30.21 497.438 34.5 497.738 39.24C498.098 43.92 498.398 48.57 498.638 53.19C501.398 48.15 504.158 42.87 506.918 37.35C509.678 31.77 512.498 26.07 515.378 20.25H520.868C521.108 21.99 521.378 24.33 521.678 27.27C521.978 30.21 522.248 33.39 522.488 36.81C522.788 40.23 523.088 43.59 523.388 46.89C523.688 50.13 523.958 52.95 524.198 55.35C526.298 52.65 528.158 50.19 529.778 47.97C531.458 45.75 533.138 43.26 534.818 40.5C535.778 38.94 536.408 37.38 536.708 35.82C537.008 34.26 536.858 32.73 536.258 31.23L534.728 27.27C533.828 24.81 533.918 22.68 534.998 20.88C536.138 19.08 537.698 18.18 539.678 18.18C541.598 18.18 543.008 18.81 543.908 20.07C544.868 21.27 545.348 22.83 545.348 24.75C545.348 26.13 545.018 27.63 544.358 29.25C543.758 30.81 542.648 33.03 541.028 35.91C538.748 39.93 535.808 44.31 532.208 49.05C528.608 53.79 524.558 58.53 520.058 63.27L514.748 63.9L513.938 63.18C513.458 58.5 512.978 53.94 512.498 49.5C512.078 45.06 511.538 40.17 510.878 34.83C508.658 39.51 506.198 44.37 503.498 49.41C500.858 54.39 498.218 59.01 495.578 63.27L489.908 63.9ZM549.046 64.44C547.066 64.44 545.476 63.93 544.276 62.91C543.136 61.89 542.566 60.42 542.566 58.5C542.566 57.42 542.686 56.13 542.926 54.63C543.166 53.07 543.526 51.09 544.006 48.69L549.136 23.85C549.616 21.57 550.006 19.5 550.306 17.64C550.666 15.78 551.056 13.68 551.476 11.34C551.896 8.93996 550.936 7.31997 548.596 6.47997L547.066 5.93996L547.246 5.03996L564.886 -3.73125e-05L565.426 0.629965L554.356 52.83C554.176 53.73 554.026 54.54 553.906 55.26C553.786 55.92 553.726 56.49 553.726 56.97C553.726 58.29 554.296 58.95 555.436 58.95C556.936 58.95 559.126 57.6 562.006 54.9L562.906 55.62C561.406 57.84 559.516 59.88 557.236 61.74C554.956 63.54 552.226 64.44 549.046 64.44ZM578.484 64.44C573.984 64.44 570.324 62.97 567.504 60.03C564.684 57.09 563.274 52.92 563.274 47.52C563.274 43.68 563.934 40.02 565.254 36.54C566.574 33.06 568.404 29.97 570.744 27.27C573.144 24.51 575.904 22.35 579.024 20.79C582.144 19.23 585.534 18.45 589.194 18.45C592.974 18.45 595.854 19.32 597.834 21.06C599.874 22.74 600.894 24.99 600.894 27.81C600.894 30.15 599.784 32.46 597.564 34.74C595.404 37.02 592.344 39.09 588.384 40.95C584.424 42.75 579.774 44.13 574.434 45.09C574.494 49.23 575.394 52.26 577.134 54.18C578.874 56.1 581.274 57.06 584.334 57.06C586.914 57.06 589.284 56.37 591.444 54.99C593.604 53.55 595.434 51.87 596.934 49.95L597.834 50.58C596.634 52.92 595.074 55.14 593.154 57.24C591.294 59.34 589.134 61.08 586.674 62.46C584.214 63.78 581.484 64.44 578.484 64.44ZM588.564 20.88C587.184 20.88 585.684 21.48 584.064 22.68C582.504 23.88 581.004 25.53 579.564 27.63C578.184 29.67 577.014 32.04 576.054 34.74C575.154 37.38 574.614 40.2 574.434 43.2C581.034 41.4 585.714 39.03 588.474 36.09C591.294 33.15 592.704 29.82 592.704 26.1C592.704 24.3 592.314 22.98 591.534 22.14C590.754 21.3 589.764 20.88 588.564 20.88ZM608.346 64.44C605.946 64.44 603.816 63.51 601.956 61.65C600.156 59.79 599.256 56.55 599.256 51.93C599.256 48.81 599.856 45.66 601.056 42.48C602.256 39.3 603.846 36.3 605.826 33.48C607.866 30.6 610.146 28.02 612.666 25.74C615.246 23.46 617.916 21.69 620.676 20.43C623.436 19.11 626.136 18.45 628.776 18.45C629.976 18.45 631.116 18.63 632.196 18.99L633.546 12.24C634.086 9.53997 633.096 7.70996 630.576 6.74996L628.596 5.93996L628.776 5.03996L646.236 -3.73125e-05L646.866 0.629965L635.796 53.01C635.616 53.97 635.466 54.78 635.346 55.44C635.286 56.04 635.256 56.64 635.256 57.24C635.256 58.5 635.766 59.13 636.786 59.13C637.506 59.13 638.466 58.77 639.666 58.05C640.926 57.27 642.186 56.13 643.446 54.63L644.436 55.53C642.996 57.93 641.046 60.03 638.586 61.83C636.126 63.57 633.516 64.44 630.756 64.44C628.776 64.44 627.216 63.81 626.076 62.55C624.936 61.23 624.366 59.55 624.366 57.51C624.366 56.49 624.456 55.29 624.636 53.91C622.176 57.03 619.476 59.58 616.536 61.56C613.656 63.48 610.926 64.44 608.346 64.44ZM610.236 49.05C610.236 52.05 610.716 54.21 611.676 55.53C612.636 56.85 613.896 57.51 615.456 57.51C618.216 57.51 621.396 55.41 624.996 51.21C625.056 50.91 625.116 50.58 625.176 50.22L630.666 23.67C629.166 22.29 627.396 21.6 625.356 21.6C623.856 21.6 622.446 21.96 621.126 22.68C619.866 23.34 618.666 24.3 617.526 25.56C616.146 27.12 614.886 29.22 613.746 31.86C612.666 34.44 611.796 37.26 611.136 40.32C610.536 43.32 610.236 46.23 610.236 49.05ZM654.542 84.33C649.502 84.33 645.512 83.55 642.572 81.99C639.692 80.43 638.252 78.15 638.252 75.15C638.252 73.29 638.912 71.58 640.232 70.02C641.552 68.52 643.172 67.2 645.092 66.06C647.072 64.92 649.082 64.02 651.122 63.36C649.082 62.82 647.492 62.1 646.352 61.2C645.212 60.24 644.642 59.04 644.642 57.6C644.642 56.16 645.482 54.48 647.162 52.56C648.902 50.58 650.942 48.69 653.282 46.89C651.542 45.69 650.222 44.19 649.322 42.39C648.422 40.59 647.972 38.7 647.972 36.72C647.972 33.42 648.812 30.39 650.492 27.63C652.172 24.87 654.422 22.65 657.242 20.97C660.122 19.29 663.272 18.45 666.692 18.45C668.972 18.45 671.072 18.78 672.992 19.44C674.972 20.04 676.622 20.97 677.942 22.23C679.862 21.93 681.692 21.48 683.432 20.88C685.232 20.22 686.942 19.41 688.562 18.45L689.192 19.08L688.292 23.76H679.292C680.732 25.68 681.452 27.99 681.452 30.69C681.452 34.35 680.642 37.59 679.022 40.41C677.462 43.23 675.272 45.45 672.452 47.07C669.632 48.63 666.332 49.41 662.552 49.41C659.672 49.41 657.122 48.87 654.902 47.79L653.552 50.04C653.072 50.76 652.922 51.48 653.102 52.2C653.282 52.92 653.912 53.37 654.992 53.55L669.752 56.52C674.732 57.54 678.212 58.86 680.192 60.48C682.232 62.1 683.252 64.32 683.252 67.14C683.252 70.5 681.992 73.47 679.472 76.05C677.012 78.63 673.622 80.64 669.302 82.08C664.982 83.58 660.062 84.33 654.542 84.33ZM664.172 47.61C666.152 47.61 667.832 46.47 669.212 44.19C670.652 41.91 671.372 37.95 671.372 32.31C671.372 28.47 670.862 25.5 669.842 23.4C668.822 21.3 667.532 20.25 665.972 20.25C663.572 20.31 661.742 21.72 660.482 24.48C659.222 27.18 658.592 30.81 658.592 35.37C658.592 38.67 659.012 41.55 659.852 44.01C660.752 46.47 662.192 47.67 664.172 47.61ZM647.342 72C647.342 75 648.422 77.34 650.582 79.02C652.742 80.76 655.652 81.63 659.312 81.63C663.932 81.63 667.562 80.85 670.202 79.29C672.842 77.73 674.162 75.48 674.162 72.54C674.162 70.8 673.382 69.42 671.822 68.4C670.322 67.38 667.652 66.51 663.812 65.79L653.282 63.81C652.982 63.75 652.712 63.69 652.472 63.63C650.912 64.59 649.652 65.76 648.692 67.14C647.792 68.58 647.342 70.2 647.342 72ZM701.66 64.44C697.16 64.44 693.5 62.97 690.68 60.03C687.86 57.09 686.45 52.92 686.45 47.52C686.45 43.68 687.11 40.02 688.43 36.54C689.75 33.06 691.58 29.97 693.92 27.27C696.32 24.51 699.08 22.35 702.2 20.79C705.32 19.23 708.71 18.45 712.37 18.45C716.15 18.45 719.03 19.32 721.01 21.06C723.05 22.74 724.07 24.99 724.07 27.81C724.07 30.15 722.96 32.46 720.74 34.74C718.58 37.02 715.52 39.09 711.56 40.95C707.6 42.75 702.95 44.13 697.61 45.09C697.67 49.23 698.57 52.26 700.31 54.18C702.05 56.1 704.45 57.06 707.51 57.06C710.09 57.06 712.46 56.37 714.62 54.99C716.78 53.55 718.61 51.87 720.11 49.95L721.01 50.58C719.81 52.92 718.25 55.14 716.33 57.24C714.47 59.34 712.31 61.08 709.85 62.46C707.39 63.78 704.66 64.44 701.66 64.44ZM711.74 20.88C710.36 20.88 708.86 21.48 707.24 22.68C705.68 23.88 704.18 25.53 702.74 27.63C701.36 29.67 700.19 32.04 699.23 34.74C698.33 37.38 697.79 40.2 697.61 43.2C704.21 41.4 708.89 39.03 711.65 36.09C714.47 33.15 715.88 29.82 715.88 26.1C715.88 24.3 715.49 22.98 714.71 22.14C713.93 21.3 712.94 20.88 711.74 20.88Z" fill="url(#paint0_linear_28_50)"/>
<defs>
<linearGradient id="paint0_linear_28_50" x1="-101.333" y1="31.09" x2="817.667" y2="31.09" gradientUnits="userSpaceOnUse">
<stop stop-color="#15313D"/>
<stop offset="1" stop-color="#3CABDA"/>
</linearGradient>
</defs>
</svg>
